<?xml version="1.0" encoding="utf-8"?>
<!-- Generator: Adobe Illustrator 16.0.0, SVG Export Plug-In . SVG Version: 6.00 Build 0)  -->
<!DOCTYPE svg PUBLIC "-//W3C//DTD SVG 1.1//EN" "http://www.w3.org/Graphics/SVG/1.1/DTD/svg11.dtd">
<svg version="1.1" id="Layer_1" xmlns="http://www.w3.org/2000/svg" xmlns:xlink="http://www.w3.org/1999/xlink" x="0px" y="0px"
	 width="266.025px" height="267.177px" viewBox="0 0 266.025 267.177" enable-background="new 0 0 266.025 267.177"
	 xml:space="preserve">
<symbol  id="Add_Favorite" viewBox="-32.446 -30.485 64.892 60.971">
	<g>
		<path fill="#29ABE2" d="M-0.446-21.854c-15.744,11.703-24.147,22.276-25,31.473v3.063c0.687,7.324,5.19,10.406,8.084,10.688
			c0.79,0.077,1.536,0.116,2.218,0.116c4.162,0,5.898-1.275,9.336-5.371l5.362-6.391l5.363,6.391
			c3.438,4.096,5.174,5.371,9.336,5.371c0.68,0,1.426-0.039,2.217-0.116c2.895-0.283,7.398-3.364,8.084-10.688V9.618
			c-0.004-0.057-0.018-0.113-0.023-0.17l0.379-7.143h5.086c0.889,2.453,1.385,4.791,1.559,7.017v3.661
			c-0.883,11-8.133,16.74-14.402,17.353c-1.031,0.101-1.994,0.149-2.898,0.149c-7.246,0-10.721-3.131-14.699-7.872
			c-3.979,4.741-7.454,7.872-14.698,7.872c-0.904,0-1.867-0.049-2.898-0.149c-6.27-0.612-13.52-6.353-14.403-17.353V9.322
			c0.822-10.528,8.771-23.515,32-39.808c2.652,1.859,5.095,3.676,7.361,5.451v4.73H1.59C0.92-20.819,0.253-21.334-0.446-21.854z"/>
	</g>
	<g>
		<polygon fill="#FF0000" points="21.333,-6.169 21.333,4.943 11.807,4.943 11.807,-6.169 0.695,-6.169 0.695,-15.694 
			11.807,-15.694 11.807,-26.808 21.333,-26.808 21.333,-15.694 32.446,-15.694 32.446,-6.169 		"/>
	</g>
</symbol>
<use xlink:href="#Add_Favorite"  width="64.892" height="60.971" x="-32.446" y="-30.485" transform="matrix(3.5017 0 0 -3.5017 135.4878 137.7466)" overflow="visible"/>
</svg>
